<?xml version="1.0" standalone="no"?><!DOCTYPE svg PUBLIC "-//W3C//DTD SVG 1.1//EN" "http://www.w3.org/Graphics/SVG/1.1/DTD/svg11.dtd"><svg t="1745801785397" class="icon" viewBox="0 0 1024 1024" version="1.1" xmlns="http://www.w3.org/2000/svg" p-id="12609" data-darkreader-inline-fill="" xmlns:xlink="http://www.w3.org/1999/xlink" width="200" height="200"><path d="M497.066667 428.8c6.4 0 10.666667 0 14.933333-2.133333l-8.533333-8.533334c-2.133333-2.133333-4.266667-6.4-4.266667-8.533333 2.133333-10.666667 6.4-17.066667 14.933333-17.066667 4.266667 0 6.4 2.133333 8.533334 4.266667l10.666666 8.533333c4.266667-8.533333 6.4-19.2 6.4-29.866666-2.133333-34.133333-17.066667-53.333333-44.8-53.333334-27.733333 2.133333-42.666667 19.2-44.8 53.333334 4.266667 32 19.2 51.2 46.933334 53.333333z" p-id="12610"></path><path d="M853.333333 264.533333L554.666667 91.733333c-25.6-14.933333-59.733333-14.933333-85.333334 0L170.666667 264.533333c-25.6 14.933333-42.666667 42.666667-42.666667 74.666667v345.6c0 29.866667 17.066667 57.6 42.666667 74.666667l298.666666 172.8c25.6 14.933333 59.733333 14.933333 85.333334 0l298.666666-172.8c25.6-14.933333 42.666667-42.666667 42.666667-74.666667V337.066667c0-29.866667-17.066667-57.6-42.666667-72.533334z m-356.266666 23.466667c49.066667 4.266667 76.8 32 81.066666 87.466667 0 21.333333-4.266667 40.533333-14.933333 53.333333l12.8 12.8c6.4 4.266667 8.533333 8.533333 8.533333 12.8-2.133333 6.4-6.4 10.666667-17.066666 12.8-4.266667 0-8.533333-2.133333-14.933334-6.4l-12.8-8.533333c-10.666667 6.4-25.6 8.533333-40.533333 8.533333-51.2-2.133333-76.8-32-81.066667-85.333333 2.133333-55.466667 27.733333-85.333333 78.933334-87.466667z m-283.733334 149.333333l21.333334-132.266666c4.266667-10.666667 10.666667-17.066667 23.466666-19.2 10.666667 0 19.2 6.4 23.466667 17.066666l27.733333 93.866667 27.733334-93.866667c4.266667-10.666667 12.8-17.066667 23.466666-17.066666 12.8 0 21.333333 6.4 23.466667 19.2l21.333333 132.266666v4.266667c0 10.666667-6.4 14.933333-17.066666 14.933333s-17.066667-4.266667-19.2-14.933333l-12.8-96-27.733334 100.266667c-2.133333 8.533333-8.533333 12.8-19.2 12.8-8.533333 0-14.933333-4.266667-19.2-12.8l-27.733333-100.266667-12.8 96c-2.133333 10.666667-6.4 14.933333-19.2 14.933333-10.666667 0-17.066667-4.266667-17.066667-14.933333v-4.266667zM810.666667 704c0 23.466667-19.2 42.666667-42.666667 42.666667h-42.666667c-23.466667 0-42.666667-19.2-42.666666-42.666667v-21.333333h-106.666667v21.333333c0 23.466667-19.2 42.666667-42.666667 42.666667h-42.666666c-23.466667 0-42.666667-19.2-42.666667-42.666667v-21.333333h-106.666667v21.333333c0 23.466667-19.2 42.666667-42.666666 42.666667h-42.666667c-23.466667 0-42.666667-19.2-42.666667-42.666667v-128c0-23.466667 19.2-42.666667 42.666667-42.666667h42.666667c23.466667 0 42.666667 19.2 42.666666 42.666667v42.666667h106.666667v-42.666667c0-23.466667 19.2-42.666667 42.666667-42.666667h42.666666c23.466667 0 42.666667 19.2 42.666667 42.666667v42.666667h106.666667v-42.666667c0-23.466667 19.2-42.666667 42.666666-42.666667h42.666667c23.466667 0 42.666667 19.2 42.666667 42.666667v128z m-14.933334-381.866667h-25.6v119.466667c0 10.666667-6.4 17.066667-19.2 17.066667-10.666667 0-17.066667-6.4-17.066666-17.066667v-119.466667h-25.6c-6.4 0-8.533333-2.133333-12.8-8.533333-2.133333 4.266667-6.4 6.4-12.8 8.533333h-25.6v119.466667c0 10.666667-6.4 17.066667-19.2 17.066667-10.666667 0-17.066667-6.4-17.066667-17.066667v-119.466667h-25.6c-8.533333 0-12.8-6.4-12.8-17.066666s4.266667-14.933333 12.8-14.933334H682.666667c6.4 0 10.666667 2.133333 12.8 6.4 2.133333-4.266667 6.4-6.4 10.666666-6.4h87.466667c10.666667 0 14.933333 6.4 14.933333 14.933334 2.133333 10.666667-4.266667 17.066667-12.8 17.066666z" p-id="12611"></path></svg>